<svg width="84" height="24" viewBox="0 0 84 24" fill="none" xmlns="http://www.w3.org/2000/svg">
<g clip-path="url(#clip0_8204_102496)">
<path d="M14.4189 0C14.7921 0.185358 15.2117 0.717661 15.4935 1.0324C17.9104 3.73235 19.1782 7.17116 18.9539 10.791C18.7369 14.2939 17.0069 17.4043 14.4104 19.7031C13.9187 19.367 13.4688 18.8886 13.0755 18.4439C10.8697 15.9492 9.66063 12.4442 9.87127 9.11895C10.0884 5.69058 11.8409 2.26011 14.4189 0Z" fill="#0D0B0A"/>
<path d="M24.7042 4.90277C24.7113 4.9149 24.7195 4.92654 24.7257 4.93921C24.8632 5.21932 24.903 5.66374 24.9379 5.97463C25.1196 7.59142 24.9692 9.21244 24.4006 10.7432C22.98 14.5677 19.6963 17.3829 16.0657 19.0518C16.0229 19.0513 16.0516 19.0548 15.9863 19.0168C16.2082 18.6538 16.5176 18.3294 16.7736 17.9884C17.1651 17.4559 17.5199 16.8977 17.8354 16.3175C18.9475 14.271 19.4794 12.0204 19.4777 9.69934C19.4773 9.04014 19.4622 8.38166 19.2714 7.74545C19.6119 7.36758 20.0291 7.04908 20.4341 6.74262C21.7392 5.75493 23.0542 5.06757 24.7042 4.90277Z" fill="#0D0B0A"/>
<path d="M4.08781 4.91878C4.28374 4.92633 4.48142 4.95176 4.6752 4.98123C6.1666 5.20814 7.47151 6.00233 8.63657 6.92148C8.96174 7.17801 9.3175 7.4455 9.56234 7.7826C8.94288 10.9651 9.76445 14.3022 11.4101 17.0545C11.6729 17.492 11.9568 17.9163 12.2608 18.3265C12.406 18.5218 12.5788 18.6991 12.7089 18.9042L12.6629 18.9641C9.94952 17.8037 7.40774 15.7504 5.7726 13.2962C4.05716 10.7212 3.48993 7.9475 4.08781 4.91878Z" fill="#0D0B0A"/>
<path d="M27.3599 12.0209C27.7926 11.9692 28.7621 11.9147 29.1248 12.1456C29.1431 12.2001 29.1485 12.2055 29.1504 12.2718C29.1577 12.5256 28.9918 12.9055 28.9059 13.1423C28.3304 14.7762 27.3452 16.2352 26.0447 17.3795C23.4988 19.6306 20.1987 20.4382 16.8659 20.2239C16.2364 20.1581 15.5875 20.1143 14.9824 19.9214C17.7748 19.0626 20.4309 17.3079 22.3555 15.1167C22.8285 14.5779 23.1754 13.9524 23.6357 13.4107C24.5093 12.3823 26.0934 12.1105 27.3599 12.0209Z" fill="#0D0B0A"/>
<path d="M0.683809 12.1061C1.98507 11.9527 3.75077 12.167 4.82259 12.9771C5.45982 13.4589 5.84384 14.3533 6.37049 14.9622C8.01743 16.8694 10.0801 18.3732 12.3998 19.3578C12.8937 19.5692 13.4022 19.7898 13.9245 19.9185L12.8804 20.0929C9.84022 20.5303 6.68976 19.9871 4.08846 18.2958C2.31701 17.1437 1.06973 15.5639 0.336427 13.5934C0.228768 13.3045 0.0676202 12.9908 0.0125729 12.6897C-0.0195786 12.5139 0.0087244 12.3979 0.111463 12.2489C0.274998 12.1285 0.487588 12.13 0.683809 12.1061Z" fill="#0D0B0A"/>
<path d="M53.7794 9.4788C54.7926 9.47036 55.898 9.37968 56.8985 9.52567C57.5424 9.61958 58.1963 9.84992 58.588 10.4016C58.8759 10.8081 58.9701 11.3789 58.881 11.8645C58.7718 12.4587 58.3949 12.8023 57.9181 13.1223C58.0325 13.1706 58.1454 13.2231 58.255 13.2815C58.6763 13.5095 58.9745 13.9047 59.0978 14.3655C59.2662 14.9952 59.1311 15.6438 58.8175 16.2024C58.7468 16.3096 58.6635 16.4043 58.5704 16.4925C57.6087 17.4044 55.5005 17.2278 54.2579 17.2161C54.0187 17.2142 53.7038 17.2357 53.5255 17.054C53.4822 16.9629 53.4649 16.9028 53.4591 16.8001C53.3773 15.4655 53.4518 14.0805 53.4513 12.7415C53.4508 11.793 53.3559 10.5585 53.4796 9.64188C53.5751 9.52229 53.6357 9.52308 53.7794 9.4788ZM57.1739 14.1722C56.6372 13.822 55.7335 13.9231 55.1104 13.9241L55.1124 15.6536C55.8027 15.6585 56.6094 15.765 57.2218 15.3948C57.366 15.1824 57.5107 14.8664 57.4688 14.6018C57.4386 14.4096 57.3336 14.2764 57.1739 14.1722ZM56.9181 11.097C56.4061 10.7889 55.6872 10.8673 55.1114 10.8704V12.5306C55.7291 12.5354 56.4662 12.6264 57.006 12.2776C57.151 12.0697 57.2913 11.7714 57.2364 11.5091C57.1965 11.3165 57.0822 11.1956 56.9181 11.097Z" fill="#0D0B0A"/>
<path d="M44.3313 11.2761C44.4857 11.2633 44.6413 11.2713 44.7932 11.3005C45.2568 11.3934 45.4828 11.7346 45.7307 12.0984C45.7448 11.9712 45.7547 11.8339 45.7844 11.7097C45.8151 11.5802 45.8858 11.5005 46.0022 11.4382C46.1893 11.3386 46.5916 11.3322 46.7873 11.405C46.9304 11.4583 47.0896 11.5824 47.1389 11.7322C47.2846 12.175 47.2281 16.5104 47.1438 17.1033C47.0882 17.4938 46.967 17.8791 46.7698 18.2214C46.4522 18.7738 45.9114 19.1339 45.3039 19.2986C44.4475 19.53 43.4735 19.4562 42.7092 18.9958C42.3682 18.7907 42.2085 18.5267 42.1184 18.1462C42.1471 18.0088 42.1812 17.875 42.2991 17.7859C42.6819 17.4966 43.509 17.9822 43.9338 18.0613C44.2997 18.129 44.6943 18.092 44.9983 17.862C45.4995 17.484 45.5825 16.785 45.6682 16.2087C45.3326 16.5673 45.0137 16.856 44.5188 16.9773C43.9826 17.1091 43.395 17.0185 42.9338 16.7126C42.3264 16.3102 41.9877 15.6196 41.8635 14.9187C41.7121 14.0653 41.8443 13.0444 42.3616 12.3298C42.855 11.6491 43.5338 11.3982 44.3313 11.2761ZM44.4221 12.5827C44.0228 12.7333 43.802 12.9182 43.6311 13.3161C43.4202 13.8052 43.4143 14.5141 43.6204 15.0046C43.729 15.2633 43.9472 15.5361 44.2219 15.6286C44.4031 15.6894 44.6223 15.6633 44.8088 15.6501C45.1376 15.5327 45.3248 15.394 45.4807 15.0749C45.7207 14.5844 45.7282 13.8929 45.5452 13.3806C45.439 13.083 45.2289 12.7905 44.9309 12.6618C44.7784 12.5961 44.5868 12.5745 44.4221 12.5827Z" fill="#0D0B0A"/>
<path d="M77.4994 11.3223C77.8915 11.2703 78.2779 11.2879 78.6481 11.4413C79.1596 11.6531 79.4251 12.0389 79.6277 12.5314C79.7315 12.2713 79.846 12.0092 80.0296 11.7939C80.32 11.4522 80.7004 11.3163 81.1408 11.2994C81.6479 11.2799 82.1677 11.3964 82.5399 11.7607C82.7844 12.0004 82.9345 12.3214 83.0163 12.6503C83.2341 13.5261 83.1123 15.408 83.1152 16.3979C83.1157 16.5494 83.1347 17.0282 83.0163 17.1179C82.8146 17.2699 82.1005 17.2362 81.8491 17.2007C81.7025 17.1802 81.6119 17.1013 81.5515 16.9683C81.4584 16.7637 81.5081 16.3984 81.511 16.1718C81.5208 15.4377 81.7015 13.4087 81.267 12.8734C81.1671 12.7506 81.0258 12.6736 80.8665 12.6624C80.6327 12.6459 80.3351 12.7267 80.1651 12.8933C79.5629 13.4833 79.7627 15.5809 79.7675 16.4057C79.769 16.5723 79.7748 16.7545 79.7544 16.9196C79.7451 16.9927 79.7198 17.0774 79.6531 17.1154C79.3963 17.2625 78.7718 17.2406 78.4888 17.1744C78.3412 17.1398 78.2783 17.0901 78.2257 16.9469C78.1385 16.7096 78.1872 16.3584 78.1916 16.1075C78.2048 15.3719 78.3792 13.5427 78.005 12.9913C77.8925 12.8256 77.7254 12.7248 77.5286 12.6926C77.305 12.6561 77.0722 12.6858 76.89 12.8295C76.1578 13.4073 76.358 15.4323 76.3614 16.2693C76.3624 16.4705 76.4033 16.7583 76.3566 16.9464C76.3376 17.0248 76.3147 17.0726 76.2474 17.1169C76.0121 17.2713 75.374 17.2382 75.0924 17.1827C74.974 17.1593 74.8985 17.0867 74.8474 16.9795C74.7753 16.827 74.7539 12.4262 74.7806 11.9902C74.788 11.8689 74.8133 11.7393 74.8688 11.63C74.9404 11.4898 75.0603 11.3985 75.2074 11.351C75.5557 11.2385 75.9902 11.363 76.2981 11.534C76.3721 11.809 76.319 12.169 76.3074 12.4559C76.3434 12.3828 76.3799 12.3098 76.4174 12.2377C76.6893 11.7125 76.9445 11.4985 77.4994 11.3223Z" fill="#0D0B0A"/>
<path d="M71.1673 11.3449C72.788 11.3113 74.1352 12.5874 74.1888 14.2082C74.2424 15.8283 72.9833 17.1902 71.3636 17.2638C70.2982 17.3125 69.2885 16.7842 68.721 15.881C68.1541 14.9775 68.116 13.8392 68.6224 12.9005C69.1285 11.9614 70.1011 11.3671 71.1673 11.3449ZM70.9681 12.633C70.5326 12.8263 70.2958 13.0482 70.1273 13.5031C69.9256 14.0471 69.9581 14.807 70.2161 15.3263C70.3554 15.6059 70.5718 15.8334 70.8724 15.9337C71.0783 16.0028 71.271 16.0136 71.4817 15.964C71.8992 15.7891 72.1491 15.5665 72.3206 15.1388C72.5353 14.6026 72.5332 13.886 72.2864 13.3605C72.132 13.0317 71.8569 12.7606 71.5042 12.6564C71.3318 12.6053 71.1448 12.6169 70.9681 12.633Z" fill="#0D0B0A"/>
<path d="M38.3509 11.3536C39.9821 11.2799 41.3646 12.5411 41.4408 14.1719C41.5173 15.8033 40.2581 17.1881 38.6273 17.2667C36.993 17.3451 35.6051 16.083 35.5287 14.4483C35.4524 12.814 36.7164 11.4276 38.3509 11.3536ZM38.8119 12.6719C38.6229 12.6073 38.4285 12.6081 38.2328 12.6329C37.7959 12.8487 37.546 13.0744 37.3793 13.5518C37.1907 14.0925 37.2186 14.8646 37.4906 15.3721C37.639 15.6491 37.8634 15.8518 38.1664 15.9444C38.3524 16.0014 38.5631 16.0063 38.7523 15.961C39.1686 15.7881 39.413 15.5639 39.5804 15.1368C39.7928 14.5951 39.7753 13.8805 39.5296 13.3516C39.3854 13.0409 39.14 12.7844 38.8119 12.6719Z" fill="#0D0B0A"/>
<path d="M64.5345 11.3858C65.5851 11.216 66.645 11.624 67.3118 12.4532C67.9782 13.2827 68.1482 14.4062 67.7561 15.3956C67.3635 16.3845 66.47 17.0873 65.4163 17.2344C63.8112 17.459 62.3239 16.3488 62.0823 14.7461C61.8404 13.1436 62.9348 11.6447 64.5345 11.3858ZM64.7757 12.6299C64.3372 12.8165 64.0848 13.0285 63.9075 13.4825C63.6996 14.0149 63.7201 14.7523 63.9661 15.2696C64.1147 15.5816 64.3674 15.8382 64.7015 15.9444C64.8685 15.998 65.0583 15.9971 65.2308 15.9756C65.668 15.7911 65.9226 15.5843 66.1038 15.1299C66.3141 14.6019 66.3107 13.8733 66.0657 13.3575C65.92 13.0511 65.6723 12.7927 65.3479 12.6778C65.1649 12.6131 64.967 12.6139 64.7757 12.6299Z" fill="#0D0B0A"/>
<path d="M49.7499 11.325C50.12 11.281 50.4769 11.2883 50.8417 11.3728C51.3956 11.5012 51.8599 11.8232 52.1425 12.3201C52.2935 12.5861 52.3809 12.8784 52.4228 13.1804C52.4875 13.6474 52.524 16.5995 52.4179 17.0056C52.3288 17.1194 52.2392 17.1605 52.1005 17.1902C51.8637 17.2404 51.3447 17.2708 51.1532 17.0935C50.9862 16.9391 51.0204 16.616 51.0185 16.408C50.7408 16.8181 50.4615 17.1489 49.9569 17.2752C49.3933 17.4154 48.8704 17.2506 48.3847 16.9705C48.178 16.7798 48.0207 16.5846 47.9315 16.3142C47.7816 15.8579 47.8297 15.2424 48.0634 14.822C48.6299 13.8024 49.9651 13.8633 50.9413 13.5759L51.0019 13.5574C50.9625 13.4354 50.9244 13.3108 50.8739 13.1931C50.3216 11.9195 48.9443 13.3107 48.2782 12.9607C48.1438 12.8901 48.0467 12.747 48.0126 12.6013C47.967 12.4076 48.0193 12.2825 48.1249 12.1218C48.4825 11.5763 49.1527 11.4388 49.7499 11.325ZM50.9364 14.7283C50.5306 14.8398 49.7693 14.9626 49.5273 15.3308C49.4486 15.4511 49.442 15.6086 49.4931 15.741C49.5291 15.8343 49.5997 15.9161 49.662 15.9929C50.0814 16.0212 50.3444 15.9903 50.6649 15.699C50.8593 15.5217 51.0375 15.2369 51.0282 14.9627C51.0258 14.8945 51.0067 14.8253 50.9911 14.7595L50.9364 14.7283Z" fill="#0D0B0A"/>
<path d="M33.1956 12.4213C33.3409 11.9595 34.4721 9.74981 34.8325 9.54229C35.0197 9.43453 36.019 9.41807 36.2198 9.50994C36.3486 9.56889 36.3625 9.60372 36.4208 9.72399C36.318 10.2961 35.0539 12.2162 34.6799 12.8422L34.023 13.9344C34.0255 14.5911 34.141 16.5952 33.9121 17.0706C33.8318 17.132 33.775 17.1661 33.6745 17.1895C33.3661 17.2616 32.7524 17.2401 32.4805 17.0692C32.27 16.792 32.3801 14.4912 32.3805 13.9821C32.0446 13.4453 29.8775 9.98501 29.9347 9.65448C30.0063 9.5515 30.0524 9.52573 30.1684 9.48013C30.534 9.46932 31.2773 9.37237 31.5797 9.55603C31.9722 9.79429 33.0497 11.9351 33.1956 12.4213Z" fill="#0D0B0A"/>
<path d="M60.0336 9.47914C60.4169 9.4692 61.0444 9.37328 61.3752 9.57145C61.4682 10.203 61.4317 10.8714 61.4331 11.5084L61.437 14.4585C61.437 15.2287 61.5218 16.1557 61.4224 16.9118C61.4029 17.0623 61.3099 17.1115 61.2008 17.1977C60.8013 17.2109 60.187 17.3098 59.8582 17.0501C59.7807 16.7549 59.732 9.9448 59.8065 9.6758C59.8421 9.54836 59.9259 9.5338 60.0336 9.47914Z" fill="#0D0B0A"/>
<path d="M14.5762 20.1245C15.1051 20.3126 15.6373 20.4631 16.1921 20.5532C17.148 20.7081 18.2585 20.6628 19.1173 21.1607C19.7514 21.5285 20.4009 22.3897 20.5801 23.1039C20.613 23.2349 20.6035 23.2457 20.5363 23.3543C19.8726 23.5935 19.228 23.5365 18.5675 23.3202C16.9766 22.7999 15.3549 21.6405 14.5762 20.1245Z" fill="#0D0B0A"/>
<path d="M14.2774 20.1284C14.3109 20.1255 14.3431 20.143 14.3756 20.1523C14.3739 20.1674 14.3742 20.183 14.3706 20.1981C14.2889 20.5366 12.9792 21.9172 12.6768 22.1564C11.6317 22.9816 10.08 23.6368 8.73177 23.4756C8.69572 23.4678 8.64565 23.458 8.61281 23.4429C8.54023 23.4093 8.49424 23.3825 8.4751 23.3041C8.42399 23.0932 8.54388 22.8486 8.63975 22.6655C8.9486 22.075 9.43224 21.3823 10.0381 21.0632C10.785 20.6706 11.8878 20.6721 12.7178 20.5245C13.2495 20.4299 13.7619 20.2858 14.2774 20.1284Z" fill="#0D0B0A"/>
</g>
<defs>
<clipPath id="clip0_8204_102496">
<rect width="83.147" height="23.5097" fill="white"/>
</clipPath>
</defs>
</svg>
